# xmcd
#
# Track frame offsets: 
#        150
#        12935
#        24265
#        34012
#        45500
#        58582
#        69727
#        82192
#        95305
#        107532
#        120192
#        130895
#        144317
#        157795
#        170330
#        182240
#        195802
#        207095
#        219225
#        231895
#        245747
#        257327
#        271947
#        284290
#        295360
#
# Disc length: 4077 seconds
#
# Revision: 2
# Processed by: cddbd v1.5.1PL0 Copyright (c) Steve Scherf et al.
# Submitted via: ExactAudioCopy v0.95a4
#
DISCID=4f0feb19
DTITLE=Marvin Gaye - Anthology - Vol 1
DYEAR=1986
DGENRE=Motown
TTITLE0=Stubborn Kind of Fellow
TTITLE1=Hitchhike
TTITLE2=Pride and Joy
TTITLE3=Once Upon a Time (with Mary Wells)
TTITLE4=Can I Get a Witness
TTITLE5=What's the Matter With You Baby (with Mary Wells)
TTITLE6=You're a Wonderful One
TTITLE7=Try It Baby
TTITLE8=Baby Don't You Do It
TTITLE9=What Good Am I Without You (with Kim Weston)
TTITLE10=Forever
TTITLE11=How Sweet It Is (To Be Loved By You)
TTITLE12=It Takes Two (with Kim Weston)
TTITLE13=I'll Be Doggone
TTITLE14=Pretty Little Baby
TTITLE15=Ain't That Peculiar
TTITLE16=Ain't No Mountain High Enough (with Tammi Terrell)
TTITLE17=One More Heartache
TTITLE18=Take This Heart of Mine
TTITLE19=Your Precious Love
TTITLE20=Litttle Darling I Need You
TTITLE21=Your Unchanging Love
TTITLE22=If This World Were Mine (with Tammi Terrell)
TTITLE23=You
TTITLE24=If I Could Build My Whole World Around You (with Tammi Terrel
TTITLE24=l)
EXTD=
EXTT0=
EXTT1=
EXTT2=
EXTT3=
EXTT4=
EXTT5=
EXTT6=
EXTT7=
EXTT8=
EXTT9=
EXTT10=
EXTT11=
EXTT12=
EXTT13=
EXTT14=
EXTT15=
EXTT16=
EXTT17=
EXTT18=
EXTT19=
EXTT20=
EXTT21=
EXTT22=
EXTT23=
EXTT24=
PLAYORDER=
